<svg xmlns="http://www.w3.org/2000/svg" viewBox="0 0 946.38 1025.41"><g id="Шар_2" data-name="Шар 2"><path d="M490.86,126.12s-242.42-9.25-62.75,313.1c0,0,0,13.21-15.19,13.21s-76-6.6-76-6.6-12.55,72,6.61,74.64,91.15,3.3,97.1,11.23,6.61,34.35,6.61,34.35l.66,274.13s-8.59,28.4,17.17,31.7h25.76" style="fill:#2cbdeb;stroke:#1d1d1b;stroke-miterlimit:10"/><path d="M490.86,171S328.37,151.88,449.25,394.3h41.61" style="fill:#fff;stroke:#1d1d1b;stroke-miterlimit:10"/><path d="M490.86,126.12s242.42-9.25,62.75,313.1c0,0,0,13.21,15.2,13.21s76-6.6,76-6.6,12.55,72-6.61,74.64-91.15,3.3-97.1,11.23-6.6,34.35-6.6,34.35l-.66,274.13s8.58,28.4-17.18,31.7H490.86" style="fill:#2cbdeb;stroke:#1d1d1b;stroke-miterlimit:10"/><path d="M490.86,171s162.5-19.16,41.62,223.26H490.86" style="fill:#fff;stroke:#1d1d1b;stroke-miterlimit:10"/><line x1="490.86" y1="277.17" x2="490.86" y2="290.16" style="fill:none;stroke:#1d1d1b;stroke-miterlimit:10"/><polygon points="355.12 462.34 351.98 509.57 454.2 525.59 455.63 472.74 355.12 462.34" style="fill:#62beaf;stroke:#1d1d1b;stroke-miterlimit:10"/><path d="M490.86,808.8c-.66.16-26.59,21.8-9.25,40,0,0-3.63-23.12,9.25-28.57Z" style="fill:#b3dff6;stroke:#1d1d1b;stroke-miterlimit:10"/><path d="M490.86,832.25s-13.87,10.4,0,17.17Z" style="fill:#62beaf;stroke:#1d1d1b;stroke-miterlimit:10"/><line x1="490.86" y1="277.17" x2="490.86" y2="290.16" style="fill:none;stroke:#1d1d1b;stroke-miterlimit:10"/><polygon points="626.61 462.34 629.74 509.57 527.52 525.59 526.09 472.74 626.61 462.34" style="fill:#62beaf;stroke:#1d1d1b;stroke-miterlimit:10"/><path d="M490.86,808.8c.66.16,26.59,21.8,9.25,40,0,0,3.63-23.12-9.25-28.57Z" style="fill:#b3dff6;stroke:#1d1d1b;stroke-miterlimit:10"/><path d="M490.86,832.25s13.87,10.4,0,17.17Z" style="fill:#62beaf;stroke:#1d1d1b;stroke-miterlimit:10"/><ellipse cx="490.73" cy="378.78" rx="35.09" ry="1.43" style="fill:#fff;stroke:#1d1d1b;stroke-miterlimit:10"/></g><g id="Шар_3" data-name="Шар 3"><path d="M455.63,394.3l4.26-221s23.49-4.19,31-2.21V394.3" style="fill:#2e4093;stroke:#1d1d1b;stroke-miterlimit:10"/><path d="M490.86,394.3V171c7.49-2,31,2.21,31,2.21l4.26,221.05" style="fill:#2e4093;stroke:#1d1d1b;stroke-miterlimit:10"/><line x1="490.86" y1="808.8" x2="490.86" y2="394.63" style="fill:none;stroke:#1d1d1b;stroke-miterlimit:10"/><path d="M490.86,360.42v-22s-59-11-54.16,0,54.16,22,54.16,22v-22" style="fill:#b3dff6;stroke:#1d1d1b;stroke-miterlimit:10"/><path d="M490.86,320.78s-73.54,2.65-62.09-15.85,62.09,0,62.09,0v15.85" style="fill:#b3dff6;stroke:#1d1d1b;stroke-miterlimit:10"/><path d="M490.86,282s-74.2-1.1-64.95-14.31S490.86,269,490.86,269" style="fill:#b3dff6;stroke:#1d1d1b;stroke-miterlimit:10"/><path d="M490.86,247.24s-70-3.08-67.81-15.41,67.81,1.76,67.81,1.76v13.65" style="fill:#b3dff6;stroke:#1d1d1b;stroke-miterlimit:10"/><path d="M490.86,360.42v-22s59-11,54.17,0-54.17,22-54.17,22v-22" style="fill:#b3dff6;stroke:#1d1d1b;stroke-miterlimit:10"/><path d="M490.86,320.78s73.54,2.65,62.09-15.85-62.09,0-62.09,0v15.85" style="fill:#b3dff6;stroke:#1d1d1b;stroke-miterlimit:10"/><path d="M490.86,282s74.2-1.1,65-14.31-65,1.32-65,1.32" style="fill:#b3dff6;stroke:#1d1d1b;stroke-miterlimit:10"/><path d="M490.86,247.24s70-3.08,67.82-15.41-67.82,1.76-67.82,1.76v13.65" style="fill:#b2dff6;stroke:#1d1d1b;stroke-miterlimit:10"/><circle cx="474.46" cy="198.56" r="5.5" style="fill:#b3dff6;stroke:#1d1d1b;stroke-miterlimit:10"/><circle cx="474.46" cy="215.42" r="5.5" style="fill:#b3dff6;stroke:#1d1d1b;stroke-miterlimit:10"/><circle cx="505.94" cy="215.42" r="5.5" style="fill:#b3dff6;stroke:#1d1d1b;stroke-miterlimit:10"/><circle cx="505.94" cy="198.56" r="5.5" style="fill:#b3dff6;stroke:#1d1d1b;stroke-miterlimit:10"/><ellipse cx="490.9" cy="374.65" rx="34.85" ry="1.93" style="fill:#b3dff6;stroke:#1d1d1b;stroke-miterlimit:10"/><ellipse cx="490.9" cy="366.57" rx="34.85" ry="1.93" style="fill:#b3dff6;stroke:#1d1d1b;stroke-miterlimit:10"/><ellipse cx="490.48" cy="382.13" rx="34.85" ry="1.93" style="fill:#b3dff6;stroke:#1d1d1b;stroke-miterlimit:10"/><ellipse cx="490.48" cy="389.35" rx="34.85" ry="1.93" style="fill:#b3dff6;stroke:#1d1d1b;stroke-miterlimit:10"/></g></svg>