<svg xmlns="http://www.w3.org/2000/svg" viewBox="0 0 436.4 660.78"><g id="Шар_2" data-name="Шар 2"><path d="M218.28,276.51C206.39,282.46,9.07,238.17,9.07,238.17l-6.82,47c8.23-7.24,189.24,38.28,189.24,38.28-11.27,22.46,0,331.08,0,331.08l26.79,5.8c-79.59-15.85-103.38-31.7-103.38-31.7l3.3-15.86c-184.95-201.47-107.67-425.39-63.08-499s125.5-87.86,125.5-87.86c3-12.55,19.82-15.19,19.82-15.19C208-1.91,216.62.73,216.62.73L218.28.5" style="fill:#2d882d;stroke:#1d1d1b;stroke-miterlimit:10"/><path d="M47.91,126.42s153.21,28.22,170.21,18.64l.16-21.14S58.4,100.55,51.8,119.34Z" style="fill:#e9e200;stroke:#1d1d1b;stroke-miterlimit:10"/><path d="M120.18,112s13.87-24.77,31.71-27.41" style="fill:#2d882d;stroke:#1d1d1b;stroke-miterlimit:10"/><path d="M146.3,36.78s46.79,56.92,40.9,83" style="fill:#2d882d;stroke:#1d1d1b;stroke-miterlimit:10"/><path d="M206.05,43.12V66.24S179,73.28,199.67,90" style="fill:#2d882d;stroke:#1d1d1b;stroke-miterlimit:10"/><path d="M178.53,55.23A40,40,0,0,1,214.2,36.78" style="fill:#2d882d;stroke:#1d1d1b;stroke-miterlimit:10"/><path d="M118.2,612.73s55.3,28.8,72.68,24l.61,17.78s-73.73-19.3-76.59-25.9Z" style="fill:#2d882d;stroke:#1d1d1b;stroke-miterlimit:10"/><path d="M120.84,626.6c6.83-5.06,9.91,3.53,9.91,3.53" style="fill:#2d882d;stroke:#1d1d1b;stroke-miterlimit:10"/><path d="M138.68,633.61s7.23-4.8,14.51,2.9" style="fill:#2d882d;stroke:#1d1d1b;stroke-miterlimit:10"/><path d="M163.34,641.36s9-4.63,16.07,2.42" style="fill:#2d882d;stroke:#1d1d1b;stroke-miterlimit:10"/><path d="M18,251.41S169.94,284,196.37,287.52" style="fill:none;stroke:#1d1d1b;stroke-miterlimit:10"/><path d="M18,263.3S173.78,299,187.72,299.41" style="fill:none;stroke:#1d1d1b;stroke-miterlimit:10"/><path d="M18,273.43s147.45,37,173.86,39.63" style="fill:none;stroke:#1d1d1b;stroke-miterlimit:10"/><path d="M196.37,332.88S194.16,649.06,199,650.82" style="fill:none;stroke:#1d1d1b;stroke-miterlimit:10"/><path d="M204.29,332.88s-2.56,311,0,317.94" style="fill:none;stroke:#1d1d1b;stroke-miterlimit:10"/><line x1="213.1" y1="336.4" x2="213.1" y2="648.18" style="fill:none;stroke:#1d1d1b;stroke-miterlimit:10"/><path d="M218.12,276.51c11.89,5.95,209.21-38.34,209.21-38.34l6.82,47c-8.23-7.24-189.24,38.28-189.24,38.28,11.26,22.46,0,331.08,0,331.08l-26.79,5.8c79.59-15.85,103.38-31.7,103.38-31.7l-3.3-15.86c185-201.47,107.67-425.39,63.08-499S255.77,25.83,255.77,25.83C252.8,13.28,236,10.64,236,10.64,228.36-1.91,219.77.73,219.77.73L218.12.5" style="fill:#2d882d;stroke:#1d1d1b;stroke-miterlimit:10"/><path d="M388.48,126.42s-153.2,28.22-170.2,18.64l-.16-21.14S378,100.55,384.59,119.34Z" style="fill:#e8e10b;stroke:#1d1d1b;stroke-miterlimit:10"/><path d="M316.22,112s-13.88-24.77-31.71-27.41" style="fill:#2d882d;stroke:#1d1d1b;stroke-miterlimit:10"/><path d="M290.1,36.78s-46.79,56.92-40.91,83" style="fill:#2d882d;stroke:#1d1d1b;stroke-miterlimit:10"/><path d="M230.34,43.12V66.24s27.09,7,6.39,23.78" style="fill:#2d882d;stroke:#1d1d1b;stroke-miterlimit:10"/><path d="M257.87,55.23A40,40,0,0,0,222.2,36.78" style="fill:#2d882d;stroke:#1d1d1b;stroke-miterlimit:10"/><path d="M318.2,612.73s-55.3,28.8-72.68,24l-.61,17.78s73.73-19.3,76.59-25.9Z" style="fill:#2d882d;stroke:#1d1d1b;stroke-miterlimit:10"/><path d="M315.55,626.6c-6.82-5.06-9.9,3.53-9.9,3.53" style="fill:#2d882d;stroke:#1d1d1b;stroke-miterlimit:10"/><path d="M297.72,633.61s-7.23-4.8-14.52,2.9" style="fill:#2d882d;stroke:#1d1d1b;stroke-miterlimit:10"/><path d="M273.06,641.36s-9-4.63-16.07,2.42" style="fill:#2d882d;stroke:#1d1d1b;stroke-miterlimit:10"/><path d="M418.38,251.41S266.45,284,240,287.52" style="fill:none;stroke:#1d1d1b;stroke-miterlimit:10"/><path d="M418.38,263.3S262.61,299,248.68,299.41" style="fill:none;stroke:#1d1d1b;stroke-miterlimit:10"/><path d="M418.38,273.43s-147.46,37-173.86,39.63" style="fill:none;stroke:#1d1d1b;stroke-miterlimit:10"/><path d="M240,332.88s2.2,316.18-2.64,317.94" style="fill:none;stroke:#1d1d1b;stroke-miterlimit:10"/><path d="M232.1,332.88s2.56,311,0,317.94" style="fill:none;stroke:#1d1d1b;stroke-miterlimit:10"/><line x1="223.3" y1="336.4" x2="223.3" y2="648.18" style="fill:none;stroke:#1d1d1b;stroke-miterlimit:10"/></g></svg>