<svg xmlns="http://www.w3.org/2000/svg" viewBox="0 0 1154.79 1154.79"><g id="Шар_2" data-name="Шар 2"><path d="M596,121.36s-79.27,13.87-106,24.77-69.36,40.63-69.36,40.63-31.7,5.94-39.63,8.91S270,416.63,248.19,595c0,0,1,5.94,53.5,38.64,0,0,9.91,9.91-16.84,12.88s-33.69,201.14-25.76,211c0,0,4,112,69.35,167.45,0,0,49.55,46.56,176.37,52.51l91.16,4" style="fill:#eee425;stroke:#1d1d1b;stroke-miterlimit:10"/><path d="M596,574.17H567.89c-10.56-2.64-23.45-11.23-23.45-11.23-12.22-2.31-45.24-54.16-45.24-54.16-20.81-23.78-33-82.24-33-82.24v-40.3l-6.61-15.19s-4-29.06,3-38.31,26.42-25.1,40.95-32,58.79-12.22,73.91-11.56,18.57,5,18.57,5" style="fill:#eee425;stroke:#1d1d1b;stroke-miterlimit:10"/><path d="M554.43,568.74s5.87,19.3,7.19,34.66,12.55,171.25,9.58,184.46c0,0,1,44.58-2,51.19s.33,19.16.33,19.16,5.28,6.27,12.22,5.94H596l0-289.76-28-.11Z" style="fill:#0b0c0b;stroke:#1d1d1b;stroke-miterlimit:10"/><path d="M248.19,595s31.7,21.8,51.52,23.78,40.29,31,40.29,31,16.52,50.87,17.18,108.33S368.41,885,375,890.9c0,0,21.8,48.88,30.39,57.47s29.06,27.74,58.13,25.1c0,0,37.65,1.32,43.59-2.64,0,0,16.52-406.24,7.27-406.24,0,0-39.63-69.23-32.37-86.14" style="fill:#eee425;stroke:#1d1d1b;stroke-miterlimit:10"/><path d="M596,121.36s79.26,13.87,106,24.77,69.35,40.63,69.35,40.63,31.71,5.94,39.64,8.91S922,416.63,943.75,595c0,0-1,5.94-53.51,38.64,0,0-9.91,9.91,16.85,12.88s33.69,201.14,25.76,211c0,0-4,112-69.36,167.45,0,0-49.54,46.56-176.37,52.51l-91.15,4" style="fill:#eee425;stroke:#1d1d1b;stroke-miterlimit:10"/><path d="M596,574.17H624c10.57-2.64,23.45-11.23,23.45-11.23,12.22-2.31,45.25-54.16,45.25-54.16,20.81-23.78,33-82.24,33-82.24v-40.3l6.6-15.19s4-29.06-3-38.31-26.42-25.1-41-32-58.78-12.22-73.9-11.56-18.57,5-18.57,5" style="fill:#eee425;stroke:#1d1d1b;stroke-miterlimit:10"/><path d="M637.51,568.74s-5.87,19.3-7.19,34.66-12.55,171.25-9.58,184.46c0,0-1,44.58,2,51.19s-.33,19.16-.33,19.16-5.28,6.27-12.22,5.94H596l0-289.76,28-.11Z" style="fill:#0b0c0b;stroke:#1d1d1b;stroke-miterlimit:10"/><path d="M943.75,595s-31.71,21.8-51.53,23.78-40.29,31-40.29,31-16.51,50.87-17.17,108.33S823.53,885,816.92,890.9c0,0-21.8,48.88-30.38,57.47s-29.07,27.74-58.13,25.1c0,0-37.65,1.32-43.6-2.64,0,0-16.51-406.24-7.26-406.24,0,0,39.63-69.23,32.36-86.14" style="fill:#eee425;stroke:#1d1d1b;stroke-miterlimit:10"/></g><g id="Шар_3" data-name="Шар 3"><path d="M522.26,136.56s2.48,110.09,11.29,125.5c0,0,4.7,9.13-6.35,10.57-9,1.17-10.09-4.2-10-2.64,0,0-20.37-75.88-19.41-126.68Z" style="fill:#374f9e;stroke:#1d1d1b;stroke-miterlimit:10"/><path d="M470.76,155.46s6.42-19.35,30.64,119.81c0,0-6.42,6.61-15.32,4S486.65,228,452.63,166Z" style="fill:#374f9e;stroke:#1d1d1b;stroke-miterlimit:10"/><path d="M431.68,179.27s16.11,6.17,45.33,103.49c0,0-1.59,4-8.64,10.13s-5.32-63.16-59.69-103.8C417.09,188.3,424.94,185.64,431.68,179.27Z" style="fill:#374f9e;stroke:#1d1d1b;stroke-miterlimit:10"/><path d="M444.72,260.24s-43.62-34.77-83.3-29.14l13.39-26.42s6.37-3.66,10.33,0c0,0,34.83,5.42,57.71,51.65q1.41,2.87,2.68,5.65c.5,1.1,1,2.19,1.45,3.27,17.82,41.3,11.46,68.59,11.46,68.59S465.88,307,444.72,260.24Z" style="fill:#374f9e;stroke:#1d1d1b;stroke-miterlimit:10"/><path d="M352.27,251s63.59-3.2,69.81,16.5-77.43,5.95-81.9,11.29l11.87-27.3" style="fill:#374f9e;stroke:#1d1d1b;stroke-miterlimit:10"/><path d="M332.76,296.64l95.76,1.75s17.5,1.1,10.68,24.44l-116.68-.41Z" style="fill:#374f9e;stroke:#1d1d1b;stroke-miterlimit:10"/><path d="M313.58,347.93s123.75-11.45,133.21-7.15,5.84,12,5.84,12-7.49-10.74-20.37-8.26-21.3,20-21.3,20L305.3,368.94Z" style="fill:#374f9e;stroke:#1d1d1b;stroke-miterlimit:10"/><path d="M296.84,393.84l116.05-4.29s10.56,11.89,10.34,22.12c0,0-132.67,6.29-133.65,4.19Z" style="fill:#374f9e;stroke:#1d1d1b;stroke-miterlimit:10"/><path d="M283,437.31s130.37-5.27,147.43-8.24c0,0,3.85.66,2.86,28.95L275,465.11Z" style="fill:#374f9e;stroke:#1d1d1b;stroke-miterlimit:10"/><path d="M269.15,487s165.31,1.61,175.44-4.45c0,0,13,4,20.51-10.21h14.53l2.39,6.09s-3.3,5.22,3,23.68l-220.72,4.76Z" style="fill:#374f9e;stroke:#1d1d1b;stroke-miterlimit:10"/><polygon points="259.62 527.71 491.52 519 503.63 544.54 255.33 549.18 259.62 527.71" style="fill:#374f9e;stroke:#1d1d1b;stroke-miterlimit:10"/><path d="M252.08,567.74l260.74-6,1.57,2.8s2.16,2,2.47,21.3l-268.34,6.44Z" style="fill:#374f9e;stroke:#1d1d1b;stroke-miterlimit:10"/><path d="M296.19,618.22l-.94-14.49s46.08-10.57,205.43-6.11v8.1s-177.19,11.06-199.15,10.56V619Z" style="fill:#374f9e;stroke:#1d1d1b;stroke-miterlimit:10"/><path d="M318.16,627.08s172.45-12.78,180.21-12.45v12.45s-160.72,12.13-166.15,13.13Z" style="fill:#374f9e;stroke:#1d1d1b;stroke-miterlimit:10"/><path d="M340.47,651.3s89.53-9.75,157.9-12.07V651.3s-154,14.17-154.1,13.66S340.47,651.3,340.47,651.3Z" style="fill:#374f9e;stroke:#1d1d1b;stroke-miterlimit:10"/><path d="M347.64,679.13l150.73-15.46v15.46s-148.62,10-147.89,14.06S347.64,679.13,347.64,679.13Z" style="fill:#374f9e;stroke:#1d1d1b;stroke-miterlimit:10"/><path d="M352.94,707.78l143.28-17v15.85S358.7,724.54,354.64,720.36Z" style="fill:#374f9e;stroke:#1d1d1b;stroke-miterlimit:10"/><path d="M355.87,732.23,496.22,721v17.16S409.44,746.44,357,749.73Z" style="fill:#374f9e;stroke:#1d1d1b;stroke-miterlimit:10"/><path d="M357.24,761.94,497.38,751.2v15.69s-91.65,12.05-138.71,15.19C358.67,782.08,357.78,778.47,357.24,761.94Z" style="fill:#374f9e;stroke:#1d1d1b;stroke-miterlimit:10"/><path d="M358.78,795.25l138.6-13.17-1.16,16s-112.93,14-136.06,13.87C360.16,812,359.52,806.94,358.78,795.25Z" style="fill:#374f9e;stroke:#1d1d1b;stroke-miterlimit:10"/><path d="M361.26,822.85l135-11.71V826s-121.07,14.7-132.86,14.12Z" style="fill:#374f9e;stroke:#1d1d1b;stroke-miterlimit:10"/><path d="M365,851.21l130.28-11.07v17.41s-114.8,14-127.08,11.81Z" style="fill:#374f9e;stroke:#1d1d1b;stroke-miterlimit:10"/><path d="M370.78,880.67l124.45-11.73v14.2l-118.12,12.4L375,890.9S374,890.9,370.78,880.67Z" style="fill:#374f9e;stroke:#1d1d1b;stroke-miterlimit:10"/><path d="M380.9,903.72l114.33-7.37v12.72s-82.9,10.57-105.52,10.73Z" style="fill:#374f9e;stroke:#1d1d1b;stroke-miterlimit:10"/><path d="M392.25,926.87l101.66-5.75v16s-74,9.24-90.08,9.41Z" style="fill:#374f9e;stroke:#1d1d1b;stroke-miterlimit:10"/><path d="M410.12,952.9l83.79-4.36,1.32,13.54L433,968.26S417.2,960.58,410.12,952.9Z" style="fill:#374f9e;stroke:#1d1d1b;stroke-miterlimit:10"/><path d="M458.44,354.38h-5.81v-1.6S433.86,327.84,411,364.56c0,0-1.82,5.17,1.93,25,0,0,9.85,7.26,10.34,22.12,0,0,6.72,2.76,7.16,17.4,0,0,5.61,5.94,2.86,28.95s19.87,35.07,31.85,14.34h14.53s-16.1-44.83-13.46-45.82v-40.3l-6.61-15.19Z" style="fill:none;stroke:#1d1d1b;stroke-miterlimit:10"/><path d="M425,396.7s-8.81-24-1.76-33,19.37-1.1,19.37-1.1S449,375,451.75,379.09" style="fill:none;stroke:#1d1d1b;stroke-miterlimit:10"/><path d="M454,405.73s-4.73,7.82-2.2,20.15,3.85-3.09,5.94,16.29H454c-7.16-4-6.17-3-12.22-16.18s-4.51-45.69-4.51-45.69" style="fill:none;stroke:#1d1d1b;stroke-miterlimit:10"/><path d="M457.69,442.17s-3.37,16.51-10.32,18.05" style="fill:none;stroke:#1d1d1b;stroke-miterlimit:10"/><path d="M464.3,364.33s7.7-51.85,56.14-52.95,52.63,23.23,52.63,23.23-13.76-2-50-10.57S464.3,364.33,464.3,364.33Z" style="stroke:#1d1d1b;stroke-miterlimit:10"/><path d="M565.13,333.22s21.92,17.35,23,32.66c0,0,4.18,43.59-12.55,65.28,0,0-14.75,4.07-17,13.1,0,0-3.31,13,9.41,13.82s16.84-1,18.33-3.14,1.65-6.46-2-7.85-7.93,4.11-7.93,4.11" style="fill:none;stroke:#1d1d1b;stroke-miterlimit:10"/><path d="M568.56,445s14.53-12.71,27.41,0" style="fill:none;stroke:#1d1d1b;stroke-miterlimit:10"/><path d="M490.36,364.69s29.17-28.84,58.89-9.36" style="fill:none;stroke:#1d1d1b;stroke-miterlimit:10"/><path d="M469.77,387.15s35.23-24,43.37-28.32,23.67-5,32.37,0,27.3,25.46,20.7,26.45-20.59-2-26.75-1.54-16.52,2.86-23.89,4.18-21.36-.22-24.44-3.19S469.77,387.15,469.77,387.15Z" style="fill:#fff;stroke:#1d1d1b;stroke-miterlimit:10"/><path d="M489.32,384s-2.7-6.74,7.64-15.05l-27.19,18.22S486.11,382.3,489.32,384Z" style="stroke:#1d1d1b;stroke-miterlimit:10"/><ellipse cx="529.05" cy="369.67" rx="16.67" ry="14.3" style="stroke:#1d1d1b;stroke-miterlimit:10"/><path d="M585.68,455.74s3.24,13.62-2.59,24.63H591a7.27,7.27,0,0,1,3.2,6.17" style="fill:none;stroke:#1d1d1b;stroke-miterlimit:10"/><path d="M535.86,505.91s7,3.72,11.56,1,29.72-15.95,48.55-3.18" style="fill:none;stroke:#1d1d1b;stroke-miterlimit:10"/><line x1="587.96" y1="527.27" x2="595.97" y2="527.27" style="fill:none;stroke:#1d1d1b;stroke-miterlimit:10"/><path d="M572.11,574.17s-1.5-17.84,3.09-27.83,5.41-11.56,7.56-11.47,13.21,0,13.21,0v39.31" style="fill:#040505;stroke:#1d1d1b;stroke-miterlimit:10"/><path d="M561.54,602.53s4.17,8.47,34.41,8.8l0-37.16H567.89l-13.27-4.77Z" style="fill:#eee425;stroke:#1d1d1b;stroke-miterlimit:10"/><line x1="595.97" y1="574.17" x2="572.11" y2="574.17" style="fill:#040505;stroke:#1d1d1b;stroke-miterlimit:10"/><path d="M669.84,136.63s-2.48,110.09-11.29,125.5c0,0-4.7,9.14,6.35,10.57,9,1.17,10.09-4.19,10-2.64,0,0,20.37-75.88,19.41-126.67Z" style="fill:#374f9e;stroke:#1d1d1b;stroke-miterlimit:10"/><path d="M721.34,155.54s-6.42-19.35-30.64,119.81c0,0,6.42,6.6,15.32,4S705.45,228,739.47,166Z" style="fill:#374f9e;stroke:#1d1d1b;stroke-miterlimit:10"/><path d="M760.42,179.35s-16.11,6.16-45.33,103.48c0,0,1.59,4,8.64,10.13s5.32-63.15,59.69-103.8C775,188.37,767.16,185.72,760.42,179.35Z" style="fill:#374f9e;stroke:#1d1d1b;stroke-miterlimit:10"/><path d="M747.38,260.31s43.62-34.77,83.3-29.13l-13.39-26.43s-6.37-3.66-10.33,0c0,0-34.83,5.42-57.71,51.66q-1.41,2.86-2.68,5.64c-.5,1.1-1,2.19-1.45,3.28-17.82,41.29-11.46,68.58-11.46,68.58S726.22,307,747.38,260.31Z" style="fill:#374f9e;stroke:#1d1d1b;stroke-miterlimit:10"/><path d="M839.83,251s-63.59-3.2-69.81,16.51,77.43,6,81.9,11.29l-11.87-27.31" style="fill:#374f9e;stroke:#1d1d1b;stroke-miterlimit:10"/><path d="M859.34,296.71l-95.76,1.75s-17.5,1.11-10.68,24.45l116.68-.41Z" style="fill:#374f9e;stroke:#1d1d1b;stroke-miterlimit:10"/><path d="M878.52,348s-123.75-11.45-133.21-7.16-5.84,12-5.84,12,7.49-10.73,20.37-8.26,21.3,20,21.3,20L886.8,369Z" style="fill:#374f9e;stroke:#1d1d1b;stroke-miterlimit:10"/><path d="M895.26,393.91l-116-4.29s-10.56,11.89-10.34,22.13c0,0,132.67,6.28,133.65,4.19Z" style="fill:#374f9e;stroke:#1d1d1b;stroke-miterlimit:10"/><path d="M909.14,437.39s-130.37-5.27-147.43-8.25c0,0-3.85.66-2.86,29l158.28,7.08Z" style="fill:#374f9e;stroke:#1d1d1b;stroke-miterlimit:10"/><path d="M923,487.09s-165.31,1.61-175.44-4.44c0,0-13,4-20.51-10.21H712.47l-2.39,6.09s3.3,5.21-3,23.67L927.82,507Z" style="fill:#374f9e;stroke:#1d1d1b;stroke-miterlimit:10"/><polygon points="932.48 527.79 700.58 519.08 688.47 544.62 936.77 549.25 932.48 527.79" style="fill:#374f9e;stroke:#1d1d1b;stroke-miterlimit:10"/><path d="M940,567.82l-260.74-6-1.57,2.8s-2.16,2-2.47,21.29l268.34,6.45Z" style="fill:#374f9e;stroke:#1d1d1b;stroke-miterlimit:10"/><path d="M895.91,618.3l.94-14.5s-46.08-10.56-205.43-6.11v8.11s177.19,11.05,199.15,10.55v2.74Z" style="fill:#374f9e;stroke:#1d1d1b;stroke-miterlimit:10"/><path d="M873.94,627.15S701.49,614.37,693.73,614.7v12.45s160.72,12.13,166.15,13.14Z" style="fill:#374f9e;stroke:#1d1d1b;stroke-miterlimit:10"/><path d="M851.63,651.37s-89.53-9.75-157.9-12.06v12.06s154,14.17,154.1,13.67S851.63,651.37,851.63,651.37Z" style="fill:#374f9e;stroke:#1d1d1b;stroke-miterlimit:10"/><path d="M844.46,679.21,693.73,663.75v15.46s148.62,10,147.89,14S844.46,679.21,844.46,679.21Z" style="fill:#374f9e;stroke:#1d1d1b;stroke-miterlimit:10"/><path d="M839.16,707.86l-143.28-17v15.86s137.52,17.92,141.58,13.75Z" style="fill:#374f9e;stroke:#1d1d1b;stroke-miterlimit:10"/><path d="M836.24,732.31,695.88,721.07v17.16s86.78,8.28,139.25,11.57Z" style="fill:#374f9e;stroke:#1d1d1b;stroke-miterlimit:10"/><path d="M834.86,762,694.72,751.27V767S786.37,779,833.44,782.15C833.44,782.15,834.32,778.54,834.86,762Z" style="fill:#374f9e;stroke:#1d1d1b;stroke-miterlimit:10"/><path d="M833.32,795.32l-138.6-13.17,1.16,16s112.93,14,136.06,13.87C831.94,812,832.58,807,833.32,795.32Z" style="fill:#374f9e;stroke:#1d1d1b;stroke-miterlimit:10"/><path d="M830.84,822.93l-135-11.71v14.86S817,840.77,828.74,840.2Z" style="fill:#374f9e;stroke:#1d1d1b;stroke-miterlimit:10"/><path d="M827.15,851.28,696.87,840.21v17.41s114.8,14,127.08,11.81Z" style="fill:#374f9e;stroke:#1d1d1b;stroke-miterlimit:10"/><path d="M821.32,880.74,696.87,869v14.2L815,895.61l2.1-4.63S818.13,891,821.32,880.74Z" style="fill:#374f9e;stroke:#1d1d1b;stroke-miterlimit:10"/><path d="M811.2,903.8l-114.33-7.37v12.71s82.9,10.57,105.52,10.74Z" style="fill:#374f9e;stroke:#1d1d1b;stroke-miterlimit:10"/><path d="M799.85,927,698.19,921.2v16s74,9.23,90.08,9.4Z" style="fill:#374f9e;stroke:#1d1d1b;stroke-miterlimit:10"/><path d="M782,953l-83.79-4.37-1.32,13.54,62.22,6.18S774.9,960.66,782,953Z" style="fill:#374f9e;stroke:#1d1d1b;stroke-miterlimit:10"/><path d="M733.66,354.45h5.81v-1.6s18.77-24.94,41.67,11.78c0,0,1.82,5.17-1.93,25,0,0-9.85,7.27-10.34,22.13,0,0-6.72,2.75-7.16,17.39,0,0-5.61,5.95-2.86,29S739,493.16,727,472.44H712.47s16.1-44.84,13.46-45.83V386.32l6.61-15.19Z" style="fill:none;stroke:#1d1d1b;stroke-miterlimit:10"/><path d="M767.1,396.78s8.81-24,1.76-33-19.37-1.1-19.37-1.1-6.39,12.44-9.14,16.51" style="fill:none;stroke:#1d1d1b;stroke-miterlimit:10"/><path d="M738.15,405.8s4.73,7.82,2.2,20.15-3.85-3.08-5.94,16.29h3.74c7.16-4,6.17-3,12.22-16.18s4.51-45.69,4.51-45.69" style="fill:none;stroke:#1d1d1b;stroke-miterlimit:10"/><path d="M734.41,442.24s3.37,16.52,10.32,18.06" style="fill:none;stroke:#1d1d1b;stroke-miterlimit:10"/><path d="M727.8,364.41s-7.7-51.85-56.14-53S619,334.69,619,334.69s13.76-2,50-10.57S727.8,364.41,727.8,364.41Z" style="stroke:#1d1d1b;stroke-miterlimit:10"/><path d="M627,333.29S605.05,350.65,604,366c0,0-4.18,43.6,12.55,65.29,0,0,14.75,4.07,17,13.1,0,0,3.31,13-9.41,13.81s-16.84-1-18.33-3.13-1.65-6.46,2-7.86,7.93,4.11,7.93,4.11" style="fill:none;stroke:#1d1d1b;stroke-miterlimit:10"/><path d="M623.55,445.11s-14.54-12.72-27.42,0" style="fill:none;stroke:#1d1d1b;stroke-miterlimit:10"/><path d="M701.74,364.77s-29.17-28.85-58.89-9.36" style="fill:none;stroke:#1d1d1b;stroke-miterlimit:10"/><path d="M722.33,387.23S687.1,363.17,679,358.91s-23.67-5-32.37,0-27.3,25.45-20.7,26.44,20.59-2,26.75-1.54,16.52,2.87,23.89,4.19,21.36-.22,24.44-3.2S722.33,387.23,722.33,387.23Z" style="fill:#fff;stroke:#1d1d1b;stroke-miterlimit:10"/><path d="M702.78,384.05s2.7-6.73-7.64-15l27.19,18.22S706,382.37,702.78,384.05Z" style="stroke:#1d1d1b;stroke-miterlimit:10"/><ellipse cx="663.05" cy="369.75" rx="16.67" ry="14.3" style="stroke:#1d1d1b;stroke-miterlimit:10"/><path d="M606.42,455.82s-3.24,13.62,2.59,24.63h-7.92a7.26,7.26,0,0,0-3.2,6.16" style="fill:none;stroke:#1d1d1b;stroke-miterlimit:10"/><path d="M656.24,506s-7,3.71-11.56,1S615,491,596.13,503.79" style="fill:none;stroke:#1d1d1b;stroke-miterlimit:10"/><line x1="604.14" y1="527.35" x2="596.13" y2="527.35" style="fill:none;stroke:#1d1d1b;stroke-miterlimit:10"/><path d="M620,574.24s1.5-17.83-3.09-27.82-5.41-11.56-7.56-11.48-13.21,0-13.21,0v39.3" style="fill:#040505;stroke:#1d1d1b;stroke-miterlimit:10"/><path d="M630.56,602.61s-4.17,8.46-34.41,8.79l0-37.16h28.08l13.27-4.77Z" style="fill:#eee425;stroke:#1d1d1b;stroke-miterlimit:10"/><line x1="596.13" y1="574.24" x2="619.99" y2="574.24" style="fill:#040505;stroke:#1d1d1b;stroke-miterlimit:10"/></g></svg>