<svg id="Шар_2" data-name="Шар 2" xmlns="http://www.w3.org/2000/svg" viewBox="0 0 1140.87 1287.38"><path d="M498.39,387.71S577.65,355,647,397.61,748.07,467,748.07,467s-2,35.67,7.93,38.64,38.64,53.51,36.66,67.38-86.2,90.17-86.2,90.17-27.74,26.75,9.91,35.66,57.46-6.93,124.84,131.78l-24.77,231.86s33.69,83.23,109,113c0,0,5,25.76-8.92,28.74s-124.84,0-124.84,0l-128.81-6.94-92.43-26.75s-160.23,18.82-193.92-10.9-62.42-69.36-62.42-69.36l-6.93-262.57S348.77,624.51,386.42,572s61.43-83.23,66.39-104S484.67,392.22,498.39,387.71Z" style="fill:#d8c9bc;stroke:#1d1d1b;stroke-miterlimit:10"/><path d="M435.91,502s163.54,183,224,196.86" style="fill:none;stroke:#1d1d1b;stroke-miterlimit:10"/><path d="M488.15,626.82s106.35,79.93,118.24,79.93" style="fill:none;stroke:#1d1d1b;stroke-miterlimit:10"/><path d="M455.12,657.21s93.8,48.22,104.37,49.54" style="fill:none;stroke:#1d1d1b;stroke-miterlimit:10"/><path d="M435.91,698.82S463.71,716,485.5,714" style="fill:none;stroke:#1d1d1b;stroke-miterlimit:10"/><path d="M317.72,869.25s14.54,65.39,109,15.19S683,746.38,683,746.38" style="fill:none;stroke:#1d1d1b;stroke-miterlimit:10"/><path d="M570.43,1170.46s-9.62-107.67,29.35-130.13" style="fill:none;stroke:#1d1d1b;stroke-miterlimit:10"/><path d="M754.35,768.18s48.22,217.32-31.05,299.23-6.6,122.86-6.6,122.86" style="fill:none;stroke:#1d1d1b;stroke-miterlimit:10"/><line x1="432" y1="714.18" x2="765.2" y2="714.18" style="fill:none;stroke:#1d1d1b;stroke-miterlimit:10"/><circle cx="660.55" cy="498.02" r="15.85" style="fill:none;stroke:#1d1d1b;stroke-miterlimit:10"/></svg>