<svg xmlns="http://www.w3.org/2000/svg" viewBox="0 0 597.37 1157.28"><g id="Шар_2" data-name="Шар 2"><path d="M322.65,160.07H296.34l-44-34.35V238.9s15.41,35.67,29.5,50.2c0,0-77.94,28.62-80.14,69.14s2.2,223.26,2.2,223.26,40.51,263.67,43.49,310.24,5,143.67,5,143.67-40.62,16.85-16.84,26.76,87.19,6.93,87.19,6.93" style="fill:#ddd;stroke:#1d1d1b;stroke-miterlimit:10"/><path d="M322.65,160.07H349l44-34.35V238.9s-15.42,35.67-29.51,50.2c0,0,77.95,28.62,80.15,69.14s-2.2,223.26-2.2,223.26S400.92,845.17,398,891.74,393,1035.41,393,1035.41s40.62,16.85,16.84,26.76-87.19,6.93-87.19,6.93" style="fill:#ddd;stroke:#1d1d1b;stroke-miterlimit:10"/></g><g id="Шар_3" data-name="Шар 3"><circle cx="286.56" cy="213.6" r="12.13" style="fill:none;stroke:#1d1d1b;stroke-miterlimit:10"/><circle cx="286.32" cy="213.69" r="3.96" style="fill:none;stroke:#1d1d1b;stroke-miterlimit:10"/><path d="M298.69,213.6s5.79,36.75,17.68,37.08" style="fill:none;stroke:#1d1d1b;stroke-miterlimit:10"/><line x1="322.65" y1="258.94" x2="322.65" y2="277.76" style="fill:none;stroke:#1d1d1b;stroke-miterlimit:10"/><polyline points="290.28 166.46 261.85 141.36 261.85 178.02" style="fill:none;stroke:#1d1d1b;stroke-miterlimit:10"/><line x1="303.66" y1="279.74" x2="322.49" y2="279.74" style="fill:none;stroke:#1d1d1b;stroke-miterlimit:10"/><line x1="322.65" y1="313.32" x2="235.13" y2="313.32" style="fill:none;stroke:#1d1d1b;stroke-miterlimit:10"/><line x1="322.49" y1="328.29" x2="218.36" y2="326.96" style="fill:none;stroke:#1d1d1b;stroke-miterlimit:10"/><line x1="322.49" y1="349.43" x2="204.09" y2="347.32" style="fill:none;stroke:#1d1d1b;stroke-miterlimit:10"/><line x1="322.49" y1="360" x2="201.66" y2="358.24" style="fill:none;stroke:#1d1d1b;stroke-miterlimit:10"/><line x1="322.49" y1="381.14" x2="201.04" y2="381.14" style="fill:none;stroke:#1d1d1b;stroke-miterlimit:10"/><line x1="322.65" y1="404.48" x2="201.04" y2="404.48" style="fill:none;stroke:#1d1d1b;stroke-miterlimit:10"/><line x1="322.49" y1="419.89" x2="201.66" y2="417.69" style="fill:none;stroke:#1d1d1b;stroke-miterlimit:10"/><line x1="322.65" y1="433.54" x2="201.27" y2="436.18" style="fill:none;stroke:#1d1d1b;stroke-miterlimit:10"/><line x1="322.49" y1="449.83" x2="201.04" y2="451.6" style="fill:none;stroke:#1d1d1b;stroke-miterlimit:10"/><polyline points="322.65 472.73 322.65 472.73 201.77 474.5" style="fill:none;stroke:#1d1d1b;stroke-miterlimit:10"/><line x1="322.65" y1="513.91" x2="202.42" y2="512.81" style="fill:none;stroke:#1d1d1b;stroke-miterlimit:10"/><line x1="322.65" y1="544.29" x2="202.96" y2="540.33" style="fill:none;stroke:#1d1d1b;stroke-miterlimit:10"/><line x1="322.65" y1="576.66" x2="202.96" y2="580.18" style="fill:none;stroke:#1d1d1b;stroke-miterlimit:10"/><line x1="322.49" y1="595.16" x2="206.32" y2="597.62" style="fill:none;stroke:#1d1d1b;stroke-miterlimit:10"/><line x1="322.65" y1="612.99" x2="209.73" y2="620.08" style="fill:none;stroke:#1d1d1b;stroke-miterlimit:10"/><line x1="322.65" y1="641.39" x2="213.35" y2="644.07" style="fill:none;stroke:#1d1d1b;stroke-miterlimit:10"/><line x1="322.65" y1="674.64" x2="217.92" y2="674.64" style="fill:none;stroke:#1d1d1b;stroke-miterlimit:10"/><line x1="322.49" y1="702.39" x2="222.31" y2="704.34" style="fill:none;stroke:#1d1d1b;stroke-miterlimit:10"/><line x1="322.49" y1="743.34" x2="228.66" y2="747.85" style="fill:none;stroke:#1d1d1b;stroke-miterlimit:10"/><line x1="322.49" y1="794.86" x2="234.18" y2="786.54" style="fill:none;stroke:#1d1d1b;stroke-miterlimit:10"/><line x1="322.49" y1="816.44" x2="239.03" y2="821.64" style="fill:none;stroke:#1d1d1b;stroke-miterlimit:10"/><line x1="322.49" y1="846.61" x2="241.99" y2="843.99" style="fill:none;stroke:#1d1d1b;stroke-miterlimit:10"/><line x1="322.49" y1="884.04" x2="247.07" y2="888.05" style="fill:none;stroke:#1d1d1b;stroke-miterlimit:10"/><line x1="322.49" y1="929.61" x2="249.31" y2="932.23" style="fill:none;stroke:#1d1d1b;stroke-miterlimit:10"/><line x1="322.65" y1="974.75" x2="250.53" y2="967.51" style="fill:none;stroke:#1d1d1b;stroke-miterlimit:10"/><line x1="322.49" y1="1004.92" x2="251.7" y2="1009.33" style="fill:none;stroke:#1d1d1b;stroke-miterlimit:10"/><path d="M322.49,1030c-9.42-2.86-70.38-3.51-70.38-3.51" style="fill:none;stroke:#1d1d1b;stroke-miterlimit:10"/><path d="M322.65,255.63s-35.91-.31-54,15.26" style="fill:none;stroke:#1d1d1b;stroke-miterlimit:10"/><path d="M322.49,222.17S255.82,237,256.37,247.76" style="fill:none;stroke:#1d1d1b;stroke-miterlimit:10"/><path d="M322.65,187.16s-63.74,2-70.35,14.31" style="fill:none;stroke:#1d1d1b;stroke-miterlimit:10"/><path d="M322.65,170.2s-53.84-3.74-70.35,13" style="fill:none;stroke:#1d1d1b;stroke-miterlimit:10"/><path d="M239,311s60.72,719.94,39.31,758" style="fill:none;stroke:#1d1d1b;stroke-miterlimit:10"/><path d="M239,1063.47s31.77-32.35,83.62-19.14" style="fill:none;stroke:#1d1d1b;stroke-miterlimit:10"/><path d="M284.78,1069s16.09-25.2,37.71-16.67" style="fill:none;stroke:#1d1d1b;stroke-miterlimit:10"/><path d="M213.35,332.48s66.91,712.47,43,731" style="fill:none;stroke:#1d1d1b;stroke-miterlimit:10"/><path d="M261,298.42s56.69,757.65,40.36,771.1" style="fill:none;stroke:#1d1d1b;stroke-miterlimit:10"/><path d="M281.8,289.1s27.22,8.37,40.69,0" style="fill:none;stroke:#1d1d1b;stroke-miterlimit:10"/><path d="M289.43,291.39s19.35,762.18,26.28,777.59" style="fill:none;stroke:#1d1d1b;stroke-miterlimit:10"/><line x1="307.53" y1="292.79" x2="319.68" y2="1069.52" style="fill:none;stroke:#1d1d1b;stroke-miterlimit:10"/><circle cx="358.74" cy="213.6" r="12.13" style="fill:none;stroke:#1d1d1b;stroke-miterlimit:10"/><circle cx="358.98" cy="213.69" r="3.96" style="fill:none;stroke:#1d1d1b;stroke-miterlimit:10"/><path d="M346.61,213.6s-5.8,36.75-17.69,37.08" style="fill:none;stroke:#1d1d1b;stroke-miterlimit:10"/><line x1="322.65" y1="258.94" x2="322.65" y2="277.76" style="fill:none;stroke:#1d1d1b;stroke-miterlimit:10"/><polyline points="355.02 166.46 383.45 141.36 383.45 178.02" style="fill:none;stroke:#1d1d1b;stroke-miterlimit:10"/><line x1="341.64" y1="279.74" x2="322.8" y2="279.74" style="fill:none;stroke:#1d1d1b;stroke-miterlimit:10"/><line x1="322.65" y1="313.32" x2="410.17" y2="313.32" style="fill:none;stroke:#1d1d1b;stroke-miterlimit:10"/><line x1="322.8" y1="328.29" x2="426.93" y2="326.96" style="fill:none;stroke:#1d1d1b;stroke-miterlimit:10"/><line x1="322.8" y1="349.43" x2="441.2" y2="347.32" style="fill:none;stroke:#1d1d1b;stroke-miterlimit:10"/><line x1="322.8" y1="360" x2="443.64" y2="358.24" style="fill:none;stroke:#1d1d1b;stroke-miterlimit:10"/><line x1="322.8" y1="381.14" x2="444.26" y2="381.14" style="fill:none;stroke:#1d1d1b;stroke-miterlimit:10"/><line x1="322.65" y1="404.48" x2="444.26" y2="404.48" style="fill:none;stroke:#1d1d1b;stroke-miterlimit:10"/><line x1="322.8" y1="419.89" x2="443.64" y2="417.69" style="fill:none;stroke:#1d1d1b;stroke-miterlimit:10"/><line x1="322.65" y1="433.54" x2="444.03" y2="436.18" style="fill:none;stroke:#1d1d1b;stroke-miterlimit:10"/><line x1="322.8" y1="449.83" x2="444.26" y2="451.6" style="fill:none;stroke:#1d1d1b;stroke-miterlimit:10"/><polyline points="322.65 472.73 322.65 472.73 443.53 474.5" style="fill:none;stroke:#1d1d1b;stroke-miterlimit:10"/><line x1="322.65" y1="513.91" x2="442.88" y2="512.81" style="fill:none;stroke:#1d1d1b;stroke-miterlimit:10"/><line x1="322.65" y1="544.29" x2="442.34" y2="540.33" style="fill:none;stroke:#1d1d1b;stroke-miterlimit:10"/><line x1="322.65" y1="576.66" x2="442.34" y2="580.18" style="fill:none;stroke:#1d1d1b;stroke-miterlimit:10"/><line x1="322.8" y1="595.16" x2="438.98" y2="597.62" style="fill:none;stroke:#1d1d1b;stroke-miterlimit:10"/><line x1="322.65" y1="612.99" x2="435.57" y2="620.08" style="fill:none;stroke:#1d1d1b;stroke-miterlimit:10"/><line x1="322.65" y1="641.39" x2="431.95" y2="644.07" style="fill:none;stroke:#1d1d1b;stroke-miterlimit:10"/><line x1="322.65" y1="674.64" x2="427.38" y2="674.64" style="fill:none;stroke:#1d1d1b;stroke-miterlimit:10"/><line x1="322.8" y1="702.39" x2="422.99" y2="704.34" style="fill:none;stroke:#1d1d1b;stroke-miterlimit:10"/><line x1="322.8" y1="743.34" x2="416.64" y2="747.85" style="fill:none;stroke:#1d1d1b;stroke-miterlimit:10"/><line x1="322.8" y1="794.86" x2="411.12" y2="786.54" style="fill:none;stroke:#1d1d1b;stroke-miterlimit:10"/><line x1="322.8" y1="816.44" x2="406.27" y2="821.64" style="fill:none;stroke:#1d1d1b;stroke-miterlimit:10"/><line x1="322.8" y1="846.61" x2="403.31" y2="843.99" style="fill:none;stroke:#1d1d1b;stroke-miterlimit:10"/><line x1="322.8" y1="884.04" x2="398.23" y2="888.05" style="fill:none;stroke:#1d1d1b;stroke-miterlimit:10"/><line x1="322.8" y1="929.61" x2="395.99" y2="932.23" style="fill:none;stroke:#1d1d1b;stroke-miterlimit:10"/><line x1="322.65" y1="974.75" x2="394.76" y2="967.51" style="fill:none;stroke:#1d1d1b;stroke-miterlimit:10"/><line x1="322.8" y1="1004.92" x2="393.6" y2="1009.33" style="fill:none;stroke:#1d1d1b;stroke-miterlimit:10"/><path d="M322.8,1030c9.43-2.86,70.39-3.51,70.39-3.51" style="fill:none;stroke:#1d1d1b;stroke-miterlimit:10"/><path d="M322.65,255.63s35.91-.31,54,15.26" style="fill:none;stroke:#1d1d1b;stroke-miterlimit:10"/><path d="M322.8,222.17s66.67,14.85,66.12,25.59" style="fill:none;stroke:#1d1d1b;stroke-miterlimit:10"/><path d="M322.65,187.16s63.74,2,70.35,14.31" style="fill:none;stroke:#1d1d1b;stroke-miterlimit:10"/><path d="M322.65,170.2s53.83-3.74,70.35,13" style="fill:none;stroke:#1d1d1b;stroke-miterlimit:10"/><path d="M406.27,311S345.55,1030.89,367,1069" style="fill:none;stroke:#1d1d1b;stroke-miterlimit:10"/><path d="M406.27,1063.47s-31.77-32.35-83.62-19.14" style="fill:none;stroke:#1d1d1b;stroke-miterlimit:10"/><path d="M360.52,1069s-16.09-25.2-37.72-16.67" style="fill:none;stroke:#1d1d1b;stroke-miterlimit:10"/><path d="M432,332.48s-66.91,712.47-43,731" style="fill:none;stroke:#1d1d1b;stroke-miterlimit:10"/><path d="M384.33,298.42s-56.7,757.65-40.36,771.1" style="fill:none;stroke:#1d1d1b;stroke-miterlimit:10"/><path d="M363.49,289.1s-27.21,8.37-40.69,0" style="fill:none;stroke:#1d1d1b;stroke-miterlimit:10"/><path d="M355.87,291.39S336.52,1053.57,329.58,1069" style="fill:none;stroke:#1d1d1b;stroke-miterlimit:10"/><line x1="337.77" y1="292.79" x2="325.62" y2="1069.52" style="fill:none;stroke:#1d1d1b;stroke-miterlimit:10"/></g></svg>