<svg xmlns="http://www.w3.org/2000/svg" viewBox="0 0 1101.64 1470.39"><g id="Шар_2" data-name="Шар 2"><path d="M397.64,894.39s-107-237.8-101.29-241.33-85-357.13-91.15-382.23S170,175.71,170,175.71l43.15-3.09s46.24,157.66,73.54,184.08c0,0,92.48,130.35,187.16,181l263.34-2.2-11,127.7s-188.92-34.35-229.43,65.18c0,0-20.26-54.61-56.81-38.31s-28.62,48-28.62,48-7.05,45.35,42.27,79.26c0,0-7.48,3.08,7.93,18.06s-52.25,52.34-57.64,58S397.64,894.39,397.64,894.39Z" style="fill:#a31916;stroke:#1d1d1b;stroke-miterlimit:10"/><path d="M286.66,356.7s9.69-64.74,0-107.89-15-68.26,19.82-78.83,53.73,10.57,53.73,10.57S399.4,282.28,432,307.82,609.45,443,609.45,443s85.88,99.14,71.79,92.94l-207.42,1.74S372.1,478.68,286.66,356.7Z" style="fill:#e0e1ea;stroke:#1d1d1b;stroke-miterlimit:10"/><path d="M726.15,663.19l-5.28,41s-.44,102.6,40.07,147.52c0,0-.44,6.16-20,15.41s-3.74,25.1-3.74,25.1,3.41,9.58-9.36,15.42c0,0,13.87,14.64,5.73,19.26s-13.76,15.75-13.76,15.75l-2.65,36.88s-6.38,12.11-18.27,12.33-68-.44-68-.44-7.59,8.69-7.93,15.41-10.56,60.66-10.56,60.66l-212.7-7.27s37.65-119.56-2-165.79c0,0,80.47-45,63.85-59s-7.93-18.06-7.93-18.06-41.5-24.55-42.27-79.26c0,0-7.21-31.44,28.62-48s56.55,37.65,56.55,37.65S522.26,634.79,726.15,663.19Z" style="fill:#e9814d;stroke:#1d1d1b;stroke-miterlimit:10"/></g><g id="Шар_3" data-name="Шар 3"><path d="M727.37,649s50.3,19.37,24.76-43.78,59-41.13,59-41.13v13.21s-31.26,7.4-27.74,27.92,1.76,32.85,1.76,32.85-6.61,33.47-21.58,39.19H724.33Z" style="fill:#e9e200;stroke:#1d1d1b;stroke-miterlimit:10"/><path d="M757.57,585.21,781,575.5s11.8,8.59,19.4-1.32,7.92-10.73,7.92-10.73-46.23-11-58,9c0,0,41.56,68.67,27.88,87.19" style="fill:#5f63aa;stroke:#1d1d1b;stroke-miterlimit:10"/><circle cx="792.36" cy="569.28" r="6.65" style="fill:#384797;stroke:#1d1d1b;stroke-miterlimit:10"/><path d="M496.46,727.71l5.21,64,24.77-2s-12.88-69.36,72.33-85.54S721.15,702,721.15,702l4.7-38.84S541.79,628.08,496.46,727.71Z" style="fill:#e9e200;stroke:#1d1d1b;stroke-miterlimit:10"/><path d="M550.82,745.43s56.54-11.56,77.35-23.78,85.54,0,85.54,0v9.18s-39.37-9.33-81.44,0L578,748.4S574.54,751.05,550.82,745.43Z" style="fill:#1d1d1b;stroke:#1d1d1b;stroke-miterlimit:10"/><path d="M552.87,775.16s20.06-.42,40.24.62c11.11.57,22.25,1.58,30.11,3.34,22.12,5,9.57,8.92,36,12.55s51.52,0,51.52,0-1.65-34.68-4.63-39.3-86.75-2.84-113,23.41" style="fill:#1d1d1b;stroke:#1d1d1b;stroke-miterlimit:10"/><path d="M621.89,771.83s75.31-23.76,78-10.55,0,17.84,0,17.84S690.92,791.29,621.89,771.83Z" style="fill:#fff;stroke:#1d1d1b;stroke-miterlimit:10"/><path d="M665.08,760.48s-.5,25.49,15.69,21,16.67-16.43,16.67-16.43.21-7.06-4.43-7.62S665.08,760.48,665.08,760.48Z" style="fill:#1d1d1b;stroke:#1d1d1b;stroke-miterlimit:10"/><path d="M459.31,833.18c.41.43,28.49,14.31,34.93-4.52a46.33,46.33,0,0,0-1.65-34.18" style="fill:none;stroke:#1d1d1b;stroke-miterlimit:10"/><path d="M450.32,788.7s-32.7-35.27-21-64.29,41.45-9,41.45-9,4.13,23.53-6.44,33.64-5.61,21.06-5.61,21.06" style="fill:none;stroke:#1d1d1b;stroke-miterlimit:10"/><path d="M444.54,739.82s5.61-10.08,14.77-8.26" style="fill:none;stroke:#1d1d1b;stroke-miterlimit:10"/><path d="M712.88,873.91s-21.46-17.46,6.94-35.4" style="fill:none;stroke:#1d1d1b;stroke-miterlimit:10"/><path d="M727.09,864s4-6.94,16-7.1" style="fill:none;stroke:#1d1d1b;stroke-miterlimit:10"/><path d="M697.45,906.28s26.17-15.2,38.72-13.22c0,0,6.22,7.11-8.37,14.54,0,0,12.83,15.75,7.3,17.95s-4.71,2.19-16.93-4.25-19.32-5.78-19.32-5.78Z" style="fill:#b85a32;stroke:#1d1d1b;stroke-miterlimit:10"/><line x1="697.99" y1="909.88" x2="727.8" y2="907.6" style="fill:none;stroke:#1d1d1b;stroke-miterlimit:10"/></g></svg>