<svg xmlns="http://www.w3.org/2000/svg" viewBox="0 0 515.32 1000"><g id="Шар_2" data-name="Шар 2"><path d="M190.55,216.67s45.8,3.08,44-56.81h12.77S245.6,225.48,195,225.92Z" style="fill:#1d1d1b;stroke:#1d1d1b;stroke-miterlimit:10"/><path d="M243.94,76.74s-11.33,31.82-23.22,36.66l3.52,8.09h8.09v17.9s10,.66,2.26,20.47h40.07V184.3s1.73,25.56,27.84,21.81l1.44-85.88s27.2-40.73,11.84-39.63-15.14,8.8-15.14,8.8h-7S289,63.2,243.94,76.74Z" style="fill:#a25d33;stroke:#1d1d1b;stroke-miterlimit:10"/><path d="M274.66,184.3l-33,4.35S230,228.34,195,225.92l-4.4-9.25s28.86-1.76,38.43-23.78c0,0-30.94,3.52-43,18.28S174,236.05,174,236.05v37h-3.75v24s.44,23.78-8.8,37.21v52.62S128.9,434,115.91,480.23l-8.15,15.19,1.54,2.86-8.58,5.51H91.47l-23.34,24-5.07,2v4.4H73l6,2.65.22,5.06h4.18L82,547.17l4.62,1.54-2,2.64,4.63,1.1.44,4.18H95a139.59,139.59,0,0,0,37.43-36.55c16.74-24,43.38-60.77,56.15-105.69S208.38,366.61,220.72,301l2.86-.22-.22-28h2.42S253.52,372.56,253.52,432s-137,266.42-137,266.42H228.42s-12.33,167.78-32.59,194.64l-.66,4-5.94,22,3.08,2.2s-29.19,45.57-110.75,57.91v11.22l95.34-1.1,1.32-4.62,13-.66s-3.52,9.69,16.29,9.91,17-10.57,17-10.57l.44-42.28,3.52-11.45,2.42,1.32,9.25-25.1-2.64-2S274,836.71,278.4,801.7s3.53-66.06,19.6-102.39h28.62s14.76,37.21,19.16,57.25,17.83,146.2,17.83,146.2h-2.86l1.1,26.42,1.76.22v3.75s-63.85,46-98.2,44.91l-.44,9,3.53.22.22,2.64,94.89.22v-5.5l13.88.22s-2,7.71,14.31,7.05,15-6.61,15-6.61l0-55.49,3.05.22V903.2s3.31-54.82,5.29-56.59,4.62-71.33-7.05-90.27c0,0-5.94-43.6-7.26-57.25h3.52s-1.54-248.59-26.2-275.45c0,0-4.41-41.83-10.13-51.52s41.83-98.2,41.83-98.2l2.87.16s5.18,105.53,4.16,113.45S425.6,513.2,425.6,513.2v22.63s-4.3,17.34-11.4,29.06l.33,25.93H421l-.16-9.75,33.69-.49V537.64H459V515.35l-2.42.11s6.39-49.76,5.51-70.9-2-146.2-2-146.2V273.48l-3.41,0V238.83s-9.58-38.56-54.82-45v-7.44" style="fill:#a25d33;stroke:#1d1d1b;stroke-miterlimit:10"/><path d="M243.94,76.74V63.86h-7.59V43.72h-6.61v-5h12.55v5.62h3.31v5.94l3.3-.33s11.89-32.37,65.72-30.38,74,49.21,77.62,69.68,9.25,82.57,9.58,97.1l-61-1.09L338.47,260s-9.91,33-37.32,26.09l2.79-165.87S331.14,81,315.78,80.6s-15.14,8.8-15.14,8.8h-7S292.5,63.64,243.94,76.74Z" style="fill:#f7db09;stroke:#1d1d1b;stroke-miterlimit:10"/></g><g id="Шар_3" data-name="Шар 3"><path d="M229.08,211.39s13.19,44.05,72.54,46.46l.88-51.74s-23.71,5.5-27.84-21.81l-33,4.35S237.27,204.12,229.08,211.39Z" style="fill:#f7db09;stroke:#1d1d1b;stroke-miterlimit:10"/><path d="M338.65,257.85s48.54-16.82,55.25-72.1l-53.12-.44Z" style="fill:#f7db09;stroke:#1d1d1b;stroke-miterlimit:10"/><path d="M250.66,187.84s6.38,42.82,51.41,43.59v-14s-35.21-4-38.63-31.66Z" style="fill:#374f9e;stroke:#1d1d1b;stroke-miterlimit:10"/><path d="M339.63,222.61s26.9-12.4,26.21-37l-12.67.16c-1.54,14.85-13.09,19.88-13.09,19.88Z" style="fill:#374f9e;stroke:#1d1d1b;stroke-miterlimit:10"/><path d="M235.51,157.35h28.66S292,145,291.5,114.23" style="fill:none;stroke:#1d1d1b;stroke-miterlimit:10"/><line x1="294.06" y1="93.92" x2="294.06" y2="111.01" style="fill:none;stroke:#1d1d1b;stroke-miterlimit:10"/><path d="M301.83,111s13.87-12.47,9.49-18.41-6.69,1.32-6.69,1.32" style="fill:none;stroke:#1d1d1b;stroke-miterlimit:10"/><path d="M245.77,76.21S266.24,71.66,287.13,88v8.26" style="fill:none;stroke:#1d1d1b;stroke-miterlimit:10"/><path d="M248.57,87.06c12.22-4.54,32.7,6.53,33.11,6.53H247.41" style="fill:none;stroke:#1d1d1b;stroke-miterlimit:10"/><ellipse cx="256.44" cy="89.78" rx="11.83" ry="3.6" style="fill:#e5eae6;stroke:#1d1d1b;stroke-miterlimit:10"/><circle cx="256.44" cy="89.78" r="3.3" style="fill:#1d1d1b;stroke:#1d1d1b;stroke-miterlimit:10"/><rect x="236.68" y="44.79" width="2.97" height="5.45" style="fill:#374f9e;stroke:#1d1d1b;stroke-miterlimit:10"/><polygon points="236.68 55.52 242.13 55.52 242.13 50.24 239.65 50.24 236.68 50.24 236.68 55.52" style="fill:#c81728;stroke:#1d1d1b;stroke-miterlimit:10"/><rect x="236.68" y="55.52" width="5.45" height="5.7" style="fill:#06a239;stroke:#1d1d1b;stroke-miterlimit:10"/><rect x="231.48" y="38.76" width="7.93" height="2.89" style="fill:#06a239;stroke:#1d1d1b;stroke-miterlimit:10"/><rect x="302.83" y="194.98" width="36.8" height="3.46" style="fill:#374f9e;stroke:#1d1d1b;stroke-miterlimit:10"/><rect x="302.38" y="214.53" width="37.25" height="3.46" style="fill:#374f9e;stroke:#1d1d1b;stroke-miterlimit:10"/><rect x="302.83" y="184.05" width="37.94" height="3.46" style="fill:#374f9e;stroke:#1d1d1b;stroke-miterlimit:10"/><rect x="302.49" y="204.75" width="37.14" height="3.46" style="fill:#374f9e;stroke:#1d1d1b;stroke-miterlimit:10"/><rect x="302.38" y="223.39" width="36.2" height="3.46" style="fill:#374f9e;stroke:#1d1d1b;stroke-miterlimit:10"/><rect x="302.38" y="233.46" width="36.2" height="3.46" style="fill:#374f9e;stroke:#1d1d1b;stroke-miterlimit:10"/><rect x="302.38" y="243.04" width="36.2" height="3.46" style="fill:#374f9e;stroke:#1d1d1b;stroke-miterlimit:10"/><rect x="302.07" y="252.29" width="36.2" height="3.46" style="fill:#374f9e;stroke:#1d1d1b;stroke-miterlimit:10"/><polygon points="301.69 261.53 337.94 261.53 336.51 265.02 301.5 265.02 301.69 261.53" style="fill:#374f9e;stroke:#1d1d1b;stroke-miterlimit:10"/><polygon points="301.41 270.56 333.77 270.3 332.02 273.04 301.5 273.04 301.41 270.56" style="fill:#374f9e;stroke:#1d1d1b;stroke-miterlimit:10"/><path d="M301.27,278.54h25.79A5.29,5.29,0,0,1,324,281.1c-2,.41-22.72,0-22.72,0Z" style="fill:#374f9e;stroke:#1d1d1b;stroke-miterlimit:10"/><polygon points="303.44 166.08 401.82 186.39 303.44 158.65 303.44 166.08" style="fill:#374f9e;stroke:#1d1d1b;stroke-miterlimit:10"/><polygon points="303.44 138.01 401.82 186.39 303.47 148.57 303.44 138.01" style="fill:#374f9e;stroke:#1d1d1b;stroke-miterlimit:10"/><polygon points="307.87 114.23 401.82 186.39 303.94 120.23 307.87 114.23" style="fill:#374f9e;stroke:#1d1d1b;stroke-miterlimit:10"/><polygon points="312.76 106 401.82 186.39 318.87 93.08 312.76 106" style="fill:#374f9e;stroke:#1d1d1b;stroke-miterlimit:10"/><path d="M258.64,45.53S392.57-29.94,401.82,186.39c0,0-12.58-190.1-139.23-127.74Z" style="fill:#374f9e;stroke:#1d1d1b;stroke-miterlimit:10"/><polygon points="170.29 273.04 223.36 273.04 223.58 300.23 170.29 300.23 170.29 273.04" style="fill:#f7db09;stroke:#1d1d1b;stroke-miterlimit:10"/><rect x="170.29" y="281.28" width="53.13" height="12.34" style="fill:#374f9e;stroke:#1d1d1b;stroke-miterlimit:10"/><polygon points="115.8 481.11 145.52 500 133.96 516.89 107.54 495.09 115.8 481.11" style="fill:#f7db09;stroke:#1d1d1b;stroke-miterlimit:10"/><polygon points="113.97 484.2 142.5 504.42 138.17 510.75 110.34 490.35 113.97 484.2" style="fill:#374f9e;stroke:#1d1d1b;stroke-miterlimit:10"/><polygon points="195.83 893.07 239.62 905.49 230.84 930.95 189.23 919.05 195.83 893.07" style="fill:#f7db09;stroke:#1d1d1b;stroke-miterlimit:10"/><polygon points="193.99 900.35 236.73 913.86 233.57 923.05 191.7 909.33 193.99 900.35" style="fill:#374f9e;stroke:#1d1d1b;stroke-miterlimit:10"/><polygon points="360.75 902.76 409.85 903.2 409.85 930.06 361.85 929.18 360.75 902.76" style="fill:#f7db09;stroke:#1d1d1b;stroke-miterlimit:10"/><polygon points="361.1 911.12 409.85 912.34 409.85 920.82 361.46 919.71 361.1 911.12" style="fill:#374f9e;stroke:#1d1d1b;stroke-miterlimit:10"/><polygon points="425.18 514.94 458.62 515.36 458.95 537.64 425.42 536.5 425.18 514.94" style="fill:#f7db09;stroke:#1d1d1b;stroke-miterlimit:10"/><polygon points="425.18 520.96 458.95 521.38 458.87 532.27 425.37 531.64 425.18 520.96" style="fill:#374f9e;stroke:#1d1d1b;stroke-miterlimit:10"/><polygon points="460.06 273.48 412.66 273.48 413.83 297.7 460.06 297.92 460.06 273.48" style="fill:#f7db09;stroke:#1d1d1b;stroke-miterlimit:10"/><polygon points="413.27 282.62 460.06 282.62 460.06 292.3 413.54 291.7 413.27 282.62" style="fill:#374f9e;stroke:#1d1d1b;stroke-miterlimit:10"/><path d="M116.57,698.43l287.78.66S404,450.5,378.15,423.64c0,0-5.95-49.1-10.13-51.52s-114.55,61.94-114.55,61.94S259.69,473.84,116.57,698.43Z" style="fill:#e5eae6;stroke:#1d1d1b;stroke-miterlimit:10"/><path d="M251.68,445.94l126.47-22.3s-5.62-50.09-10.13-51.52-114.55,61.94-114.55,61.94Z" style="fill:#f7db09;stroke:#1d1d1b;stroke-miterlimit:10"/><path d="M251.68,445.94s-20.07,63-46.54,104L219,556.63l38.71-111.74Z" style="fill:#0ea239;stroke:#1d1d1b;stroke-miterlimit:10"/><polygon points="257.66 444.89 213.78 573.92 233.71 582.28 260.46 444.39 257.66 444.89" style="fill:#374f9e;stroke:#1d1d1b;stroke-miterlimit:10"/><polygon points="260.46 444.39 227.76 617.9 323.87 612.28 301.81 437.1 260.46 444.39" style="fill:#c81728;stroke:#1d1d1b;stroke-miterlimit:10"/><polygon points="301.81 437.1 320.38 584.59 342.86 577.94 305.39 436.47 301.81 437.1" style="fill:#374f9e;stroke:#1d1d1b;stroke-miterlimit:10"/><polygon points="305.39 436.47 333.04 540.85 350.95 532.27 309.72 435.71 305.39 436.47" style="fill:#0ea239;stroke:#1d1d1b;stroke-miterlimit:10"/><circle cx="278.29" cy="433" r="4.29" style="fill:#374f9e;stroke:#1d1d1b;stroke-miterlimit:10"/><circle cx="301.09" cy="424.41" r="4.29" style="fill:#c81728;stroke:#1d1d1b;stroke-miterlimit:10"/><circle cx="323.87" cy="415.61" r="4.29" style="fill:#06a239;stroke:#1d1d1b;stroke-miterlimit:10"/><circle cx="346.66" cy="407.02" r="4.29" style="fill:#374f9e;stroke:#1d1d1b;stroke-miterlimit:10"/><circle cx="365.6" cy="398.43" r="4.29" style="fill:#c81728;stroke:#1d1d1b;stroke-miterlimit:10"/><path d="M95,556.63V920.82s-5.61-.22-5.94,3.74,0,17.5,0,17.5h2.89V952.3h3V925.88l5.2.08V952.3h2.89V941.49l2.89.16V925.39s-.49-5.12-5.7-4.55L100,553.19Z" style="fill:#1d1d1b;stroke:#1d1d1b;stroke-miterlimit:10"/><path d="M94.88,503.79h5V187.51s-3.63-6.95-10.67-4.31,11.56-21,11.56-21L97,158.65s-18.27,19.93-18.38,33.8,0,27.08,0,27.08l2.75-.11-.55-24.11s-.44-6.27,4.95-6.16,8.59.22,8.59.22Z" style="fill:#1d1d1b;stroke:#1d1d1b;stroke-miterlimit:10"/><path d="M303.94,74.76s60.34.21,97.88,111.63c0,0-49.06-87-81.34-99.91,0,0,2.35-11.22-16.54-4.29Z" style="fill:#374f9e;stroke:#1d1d1b;stroke-miterlimit:10"/><path d="M291.51,59.57s68.8-44.81,110.31,126.82c0,0-51.36-159.52-107.76-119l-2.55-6.83" style="fill:#374f9e;stroke:#1d1d1b;stroke-miterlimit:10"/></g></svg>