<svg xmlns="http://www.w3.org/2000/svg" viewBox="0 0 621.98 1037.58"><g id="Шар_2" data-name="Шар 2"><path d="M228.29,977.23l142-7.93a81.86,81.86,0,0,0-4-23.12c-4-11.89-7.92-46.24-7.92-46.24H287.74S275.19,951.46,228.29,962Z" style="fill:#ad9d76;stroke:#1d1d1b;stroke-miterlimit:10"/><path d="M358.42,899.94S334,734.8,320.11,705.08s-24.44-97.76-20.81-110.31S291,538,291,538s17.18-37.65-11.23-78.61-29.72-120.88-22.46-125.5l-93.13-2.64S192,382.07,192,417.74s5.28,155.89,32.37,210,71.35,252.34,63.41,272.15Z" style="fill:#fff;stroke:#1d1d1b;stroke-miterlimit:10"/><path d="M164.22,331.21S83.63,389.72,59.85,365.28c0,0,48.88-83.89,76-98.42s41-9.91,41-9.91v-8.58H138.46l-1.32-9.25-6.94-.55-.11-7H125.8l-.11-6.82h-8.48s12.44-30.72,9.36-50.09h49.32l2.42,15.19s7.93-23.56,18.05-9-9.68,33.69-9.68,33.69l7.26,32.59s109.91.88,117.05,8.36,78.48,17.52,78.48,17.52L441,148.18s46-12.33,47.12-20,4,12.11,4,12.11L505.28,142l-9.47,31.48-50.42,15.42L427.34,303.41l-6.83,3.75L290.6,287.78s-24,.32-33.25,46.07Z" style="fill:#ad9d76;stroke:#1d1d1b;stroke-miterlimit:10"/><path d="M126.57,174.61s3.74-30.61,36.11-31.27,42.49-1.76,54.38,11.23,60.79,95.37,60.79,95.37l-83.91-2.89-7.26-32.59s19.15-19.6,9.68-33.69-18.27,7.67-18.27,7.67l-2.2-13.83Z" style="fill:#2d271a;stroke:#1d1d1b;stroke-miterlimit:10"/></g><g id="Шар_3" data-name="Шар 3"><path d="M316.81,899.94s-7.5,62.26-88.52,68.87" style="fill:none;stroke:#1d1d1b;stroke-miterlimit:10"/><path d="M222.57,426.72s-30.39,55,17.17,183.19,29.95,95.56,29.95,95.56a118.19,118.19,0,0,0,13.21,44c11.89,22,26,122.43,26,122.43" style="fill:none;stroke:#1d1d1b;stroke-miterlimit:10"/><line x1="121.06" y1="222.61" x2="135.37" y2="222.61" style="fill:none;stroke:#1d1d1b;stroke-miterlimit:10"/><path d="M133.17,233.39s8.81,1.55,11.89-3.08" style="fill:none;stroke:#1d1d1b;stroke-miterlimit:10"/><path d="M135.37,200.37h23.56S148.36,181.65,135.37,200.37Z" style="fill:#fff;stroke:#1d1d1b;stroke-miterlimit:10"/><path d="M158.93,200.37h15.2V194s-2-12.77-16.52-12.77H137.8" style="fill:none;stroke:#1d1d1b;stroke-miterlimit:10"/><circle cx="147.15" cy="196.21" r="3.49" style="fill:#1d1d1b;stroke:#1d1d1b;stroke-miterlimit:10"/><path d="M181,193.54s4.35-13.42,11.12-7.48-9.69,23.88-9.69,23.88" style="fill:none;stroke:#1d1d1b;stroke-miterlimit:10"/><path d="M74.38,350.92S96.18,327,108.9,326.64" style="fill:none;stroke:#1d1d1b;stroke-miterlimit:10"/><polygon points="505.28 140.86 568.14 115.43 573.26 121.05 500.98 156.33 505.28 140.86" style="fill:#5b4e31;stroke:#1d1d1b;stroke-miterlimit:10"/><path d="M519.1,149.28l5.78,10.24s.66,18.83,0,19.32,18-6.11,18-6.11l-18-13.21" style="fill:none;stroke:#1d1d1b;stroke-miterlimit:10"/><polyline points="540.48 137.05 543.87 146.97 544.7 171.74 564.35 162.99 543.87 146.97" style="fill:none;stroke:#1d1d1b;stroke-miterlimit:10"/><polyline points="559.19 127.92 566.16 141.19 566.16 161.17 586.48 151.1 566.16 141.19" style="fill:none;stroke:#1d1d1b;stroke-miterlimit:10"/><path d="M291.74,288l9.13,29.11h-38S272,289,291.74,288Z" style="fill:#2d271a;stroke:#1d1d1b;stroke-miterlimit:10"/><path d="M244.36,333.48s8.79-74.76,14.19-84.67l-23-.33s-23.3,76.79-29.48,83.91Z" style="fill:#fff;stroke:#1d1d1b;stroke-miterlimit:10"/><line x1="212.32" y1="286.45" x2="194.44" y2="312.77" style="fill:none;stroke:#1d1d1b;stroke-miterlimit:10"/><path d="M216.34,288.86s-4.73,23.08-19.09,29-33.86,13.32-33.86,13.32" style="fill:none;stroke:#1d1d1b;stroke-miterlimit:10"/><path d="M110.55,325.32V298.07l98.42-34,4.13,13.7,257-119.23,21.14,4.19L224.77,284.92l-10.35,4.84s-4.62-10.18-10.07-3.74S182.55,310,182.55,310s-12.06.17-4.13-6.6a66.62,66.62,0,0,1,15.29-9.91s1.72-8.92-7.2-4.46-21,21.8-26.42,24.28S110.55,325.32,110.55,325.32Z" style="fill:#5b4e31;stroke:#1d1d1b;stroke-miterlimit:10"/></g></svg>