<svg id="Шар_4" data-name="Шар 4" xmlns="http://www.w3.org/2000/svg" viewBox="0 0 1059.52 706.35"><polygon points="34.01 578.19 70.44 548.06 539.01 508.52 982.22 548.06 1005.01 567.19 34.01 578.19" style="fill:#b77414;stroke:#1d1d1b;stroke-miterlimit:10"/><polyline points="118.25 508.52 535.13 428.15 923.26 498.55 982.22 548.06 539.01 508.52 70.44 548.06" style="fill:#c97912;stroke:#1d1d1b;stroke-miterlimit:10"/><polyline points="118.25 508.79 535.13 428.15 923.26 498.55 822.28 413.77 533.27 325.55 216 428.15 119.01 507.89" style="fill:#e2821a;stroke:#1d1d1b;stroke-miterlimit:10"/><polygon points="216.25 427.74 353.11 314.28 531.64 256.36 692.34 305.83 822.28 413.77 533.27 325.55 216.25 427.74" style="fill:#f1871f;stroke:#1d1d1b;stroke-miterlimit:10"/><polygon points="353.11 314.28 426.97 253.2 530.15 196.96 633.43 255.62 692.34 305.83 531.64 256.36 353.11 314.28" style="fill:#f1871f;stroke:#1d1d1b;stroke-miterlimit:10"/><polygon points="426.97 253.2 530.15 196.96 631.01 253.2 529.76 168.19 426.97 253.2" style="fill:#fd4;stroke:#1d1d1b;stroke-miterlimit:10"/><line x1="471.99" y1="228.67" x2="67.39" y2="577.81" style="fill:#fd4;stroke:#1d1d1b;stroke-miterlimit:10"/><line x1="504.27" y1="211.07" x2="145.65" y2="576.92" style="fill:#fd4;stroke:#1d1d1b;stroke-miterlimit:10"/><line x1="516.54" y1="204.38" x2="252.67" y2="575.71" style="fill:#fd4;stroke:#1d1d1b;stroke-miterlimit:10"/><line x1="520.75" y1="202.09" x2="365.62" y2="574.43" style="fill:#fd4;stroke:#1d1d1b;stroke-miterlimit:10"/><line x1="526.22" y1="199.86" x2="459.3" y2="573.37" style="fill:#fd4;stroke:#1d1d1b;stroke-miterlimit:10"/><line x1="532.95" y1="198.55" x2="614.37" y2="571.61" style="fill:#fd4;stroke:#1d1d1b;stroke-miterlimit:10"/><line x1="536.99" y1="200.78" x2="690.36" y2="571.61" style="fill:#fd4;stroke:#1d1d1b;stroke-miterlimit:10"/><line x1="542.53" y1="203.86" x2="800.88" y2="569.1" style="fill:#fd4;stroke:#1d1d1b;stroke-miterlimit:10"/><line x1="555.45" y1="211.07" x2="904.33" y2="569.5" style="fill:#fd4;stroke:#1d1d1b;stroke-miterlimit:10"/><line x1="581.32" y1="226.02" x2="982.22" y2="568.33" style="fill:#fd4;stroke:#1d1d1b;stroke-miterlimit:10"/><line x1="530.15" y1="196.96" x2="539.45" y2="571.61" style="fill:#fd4;stroke:#1d1d1b;stroke-miterlimit:10"/><line x1="633.43" y1="255.62" x2="628.78" y2="251.32" style="fill:#f1871f;stroke:#1d1d1b;stroke-miterlimit:10"/></svg>