<svg xmlns="http://www.w3.org/2000/svg" viewBox="0 0 1013.06 645.04"><g id="Шар_2" data-name="Шар 2"><path d="M376.08,534.05s524.48,38.75,539.45,29.06-.22-70.57-46.13-85.76c0,0,46.9-1.32,65.07,73.32,0,0,10.57-1.32,8.92-11.23s-12.56-56.15-14.87-51.52,44.59-26.09-346.79-28.08l53.18-6.27s277.89,5.15,299.36,18.36c0,0,19.68,14.34,23,44.72l6.94,11.55,25.09-8.58-17.83-45.57s-42.94-27.42-315.08-22.79l-97.1-148-1-30.71s6.61,0,6.61-7.6-2-24.77-2-24.77l.66-24.44-6.28-10.57.33-19.15-12.88-19.49-14.86-15.19-3.3,4s-55.16-14.86-77.62,8.92-41.61,79.26-41.61,79.26l4.95,6.61s4,15.85,2.31,22.46a11.07,11.07,0,0,0,2.65,10.57L404.38,302.3s-149,34.35-214,38L119,339.62l-3.63,9.58-14.21,1.65v18.5s-21.13,4.95-21.46,12.22l-7.27,1L30.83,470.74S6.39,476.69,13,493.2l.33,5,78.28,1.32L157,507.73s38.31,2.65,54.17-1.32l7.26-2.31,160.18,9.25S366,539.55,376.08,534.05Z" style="fill:#ccb73d;stroke:#1d1d1b;stroke-miterlimit:10"/><path d="M30.83,470.74s9.91,18.83,32,6.61,49.21-34.68,65.07-76.29" style="fill:none;stroke:#1d1d1b;stroke-miterlimit:10"/><path d="M91.61,499.48l14.53-38.31s62.75-6.28,95.45,3c0,0,27.78,36.91,16.84,40s-7.26,2.31-7.26,2.31S197.62,511,157,507.73,171.2,509.33,91.61,499.48Z" style="fill:#ccb73d;stroke:#1d1d1b;stroke-miterlimit:10"/><path d="M480.33,150.74s-42.89,72.13-37.28,87.33,25.1,51.19,9.58,58.13H408.18l9.11-13.55s-5-1-2.64-10.56-2.32-22.46-2.32-22.46-3.85-6.28-4.95-6.61,11.08-27.79,11.08-27.79L433.13,186s16.5-24.55,22.55-27.68S480.33,150.74,480.33,150.74Z" style="fill:none;stroke:#1d1d1b;stroke-miterlimit:10"/><path d="M452.63,296.2l53.9,167.47,32.6-7.13,42.6,3.3,74.65-8.58-97.1-148-1-30.71s6.61,0,6.61-7.6-2-24.77-2-24.77l.66-24.44-6.28-10.57.33-19.15-12.88-19.49-14.86-15.19-3.3,4s-27.62-7.82-46.62-4c0,0-43.76,74.55-37.21,85.55C442.75,236.92,470.6,288.33,452.63,296.2Z" style="fill:#8e7d2c;stroke:#1d1d1b;stroke-miterlimit:10"/><ellipse cx="526.54" cy="192.27" rx="2.26" ry="4.46" transform="translate(199.49 647.51) rotate(-74.37)" style="fill:#8e7d2c;stroke:#1d1d1b;stroke-miterlimit:10"/><ellipse cx="551.28" cy="200.47" rx="1.21" ry="2.05" transform="translate(128.1 606.69) rotate(-63.81)" style="fill:#8e7d2c;stroke:#1d1d1b;stroke-miterlimit:10"/></g><g id="Шар_3" data-name="Шар 3"><path d="M486.72,182.3s-2.31-13-9.57-6.71-13.32,18.16-7,27.74,12.33,5.06,12.33,5.06" style="fill:none;stroke:#1d1d1b;stroke-miterlimit:10"/><path d="M477.1,205.75s10.95,1.54,9-4-4-8.7-2.31-12.55" style="fill:none;stroke:#1d1d1b;stroke-miterlimit:10"/><path d="M477.1,192.87s2,6.72,6.1,8.81" style="fill:none;stroke:#1d1d1b;stroke-miterlimit:10"/><path d="M488.76,185.39c.5,2.8-2,67.21,11.24,67.21s64.31,1.78,64.31,1.78" style="fill:none;stroke:#1d1d1b;stroke-miterlimit:10"/><path d="M515.6,190.26s4.37,5.86,18.16,4.87S513.28,184.23,515.6,190.26Z" style="fill:none;stroke:#1d1d1b;stroke-miterlimit:10"/><path d="M543.34,193.81s2.39,17.42,11.48,19,1.32,8.09,1.32,8.09h-7.93" style="fill:none;stroke:#1d1d1b;stroke-miterlimit:10"/><path d="M547.55,199.42s3.75,3.8,6.77,3.39S547.63,195.79,547.55,199.42Z" style="fill:none;stroke:#1d1d1b;stroke-miterlimit:10"/><polygon points="526.58 155.33 531.31 171.62 541.99 174.43 544.61 166.42 529.88 151.37 526.58 155.33" style="fill:none;stroke:#1d1d1b;stroke-miterlimit:10"/><path d="M527.57,230.63s21,11.07,32.53,6.77S524.6,224.85,527.57,230.63Z" style="fill:none;stroke:#1d1d1b;stroke-miterlimit:10"/><line x1="527.57" y1="230.63" x2="561.84" y2="235.51" style="fill:none;stroke:#1d1d1b;stroke-miterlimit:10"/><polyline points="420.56 406.34 154.36 406.34 420.56 406.34 418.58 465.13 486.3 468.1 539.13 456.54 581.73 459.84 634.91 453.57 656.38 451.26 633.76 416.79 495.2 430.45 419.99 423.17 495.2 430.45 633.76 416.79 604.19 371.74 456.56 382.89 168.23 381.24 154.36 406.34 127.94 401.06" style="fill:none;stroke:#1d1d1b;stroke-miterlimit:10"/><path d="M79.72,381.57s53.5,10.57,88.51-.33" style="fill:none;stroke:#1d1d1b;stroke-miterlimit:10"/><path d="M101.18,369.35l368.59-7.75,121.21-10-14-21.35H470.1L185.73,351.18s-67.7,5-70.34-2l-14.21,1.65Z" style="fill:none;stroke:#1d1d1b;stroke-miterlimit:10"/></g></svg>